<svg xmlns="http://www.w3.org/2000/svg" width="33" height="10" viewBox="0 0 33 10">
  <path fill="#484848" fill-rule="evenodd" d="M7.64615274,5.65217758 C7.83592026,5.84091367 8.14837933,5.84091367 8.33816323,5.65217758 L13.8455798,0.141552066 C14.0364607,-0.0471840219 14.3478064,-0.0471840219 14.5397351,0.141552066 L15.8512773,1.45628687 C16.0421581,1.64716768 16.0421581,1.95640148 15.8512773,2.14829736 L10.339604,7.65252143 C10.1487232,7.84125752 9.8373774,8.15263605 9.64651296,8.3455961 L8.33390651,9.65604145 C8.1430257,9.84798644 7.8337919,9.84798644 7.64294383,9.65604145 L0.1447446,2.16105112 C-0.0482482,1.96910613 -0.0482482,1.65666342 0.1447446,1.46476755 L1.45518994,0.154305831 C1.64607076,-0.0386869687 1.95851346,-0.0386869687 2.14826461,0.154305831 L7.64607088,5.65211209 L7.64615274,5.65217758 Z"/>
</svg>
